<?xml version="1.0" encoding="iso-8859-1"?>
<!-- Generator: Adobe Illustrator 19.0.0, SVG Export Plug-In . SVG Version: 6.00 Build 0)  -->
<svg version="1.1" id="Capa_1" xmlns="http://www.w3.org/2000/svg" xmlns:xlink="http://www.w3.org/1999/xlink" x="0px" y="0px"
	 viewBox="0 0 512 512" style="enable-background:new 0 0 512 512;" xml:space="preserve">
<g>
	<g>
		<path fill="#fa9f34" d="M345.096,246.002h-74.347c-5.522,0-10.627,1.819-14.749,4.888c-4.122-3.069-9.227-4.888-14.749-4.888h-10.777
			c0.247-1.464,0.372-2.952,0.372-4.447v-0.696c0-14.76-12.009-26.768-26.769-26.768s-26.768,12.008-26.768,26.768v0.696
			c0,1.495,0.125,2.982,0.372,4.447h-10.777c-13.646,0-24.749,11.103-24.749,24.749v18.459c0,4.939,2.514,9.438,6.725,12.035
			c4.171,2.572,9.263,2.799,13.62,0.606c0.937-0.471,1.954-0.709,3.023-0.709h0.696c3.731,0,6.768,3.036,6.768,6.768
			s-3.036,6.768-6.768,6.768h-0.696c-1.069,0-2.087-0.238-3.023-0.71c-4.358-2.188-9.45-1.963-13.619,0.607
			c-4.212,2.597-6.726,7.096-6.726,12.036v18.486c0,13.646,11.103,24.749,24.749,24.749h74.347c5.522,0,10.627-1.819,14.749-4.888
			c4.122,3.069,9.227,4.888,14.749,4.888h10.777c-0.247,1.464-0.372,2.952-0.372,4.447v0.696c0,14.76,12.009,26.768,26.769,26.768
			s26.768-12.008,26.768-26.768v-0.696c0-1.495-0.125-2.983-0.372-4.447h10.777c13.646,0.001,24.749-11.102,24.749-24.748v-74.347
			C369.845,257.105,358.742,246.002,345.096,246.002z M252.727,314.576c-4.211,2.597-6.725,7.096-6.725,12.035v18.486
			c-0.002,2.619-2.133,4.75-4.751,4.75h-74.347c-2.618,0-4.749-2.131-4.749-4.749v-10.634c1.116,0.142,2.242,0.214,3.368,0.214
			h0.696c14.76,0,26.768-12.008,26.768-26.768s-12.008-26.768-26.768-26.768h-0.696c-1.126,0-2.252,0.072-3.368,0.214v-10.605
			c0-2.618,2.131-4.749,4.749-4.749h19.048c5.035,0,9.729-2.714,12.248-7.083c2.495-4.325,2.498-9.687,0.008-13.993
			c-0.597-1.03-0.898-2.165-0.898-3.371v-0.696c0-3.732,3.036-6.768,6.768-6.768s6.769,3.036,6.769,6.768v0.696
			c0,1.207-0.302,2.341-0.898,3.372c-2.49,4.305-2.487,9.667,0.008,13.992c2.52,4.369,7.213,7.083,12.248,7.083h19.048
			c2.618,0,4.749,2.131,4.749,4.749v18.459c0,4.939,2.514,9.438,6.724,12.034c4.17,2.571,9.261,2.8,13.622,0.607
			c0.937-0.471,1.954-0.709,3.022-0.709h0.696c3.732,0,6.769,3.036,6.769,6.768s-3.036,6.768-6.769,6.768h-0.696
			c-1.068,0-2.086-0.238-3.023-0.71C261.988,311.779,256.896,312.004,252.727,314.576z M349.843,345.098
			c0,2.618-2.131,4.749-4.749,4.749h-19.046v0c-5.035,0-9.729,2.714-12.248,7.083c-2.495,4.325-2.498,9.687-0.008,13.992
			c0.597,1.03,0.898,2.165,0.898,3.372v0.696c0,3.731-3.036,6.768-6.768,6.768s-6.769-3.036-6.769-6.768v-0.696
			c0-1.207,0.302-2.342,0.898-3.372c2.49-4.306,2.487-9.667-0.008-13.992c-2.52-4.369-7.213-7.083-12.247-7.083h-19.049
			c-2.618,0-4.749-2.131-4.749-4.749v-9.344v-1.29c1.116,0.142,2.242,0.214,3.368,0.214h0.696c14.76,0,26.769-12.008,26.769-26.768
			s-12.009-26.768-26.769-26.768h-0.696c-1.126,0-2.252,0.072-3.368,0.214v-1.324v-9.281c0-2.618,2.131-4.749,4.749-4.749h74.347
			c2.618,0,4.749,2.131,4.749,4.749V345.098z"/>
	</g>
</g>
<g>
	<g>
		<path fill="#fa9f34" d="M277.77,414.967c-0.002,0-0.002,0-0.004,0c-5.521,0-9.998,4.475-10,9.996l-0.031,77.033
			c-0.002,5.522,4.473,10.002,9.996,10.004c0.002,0,0.002,0,0.004,0c5.521,0,9.998-4.475,10-9.996l0.031-77.033
			C287.768,419.448,283.293,414.969,277.77,414.967z"/>
	</g>
</g>
<g>
	<g>
		<path fill="#fa9f34" d="M98.16,269.609c-1.86-1.859-4.44-2.93-7.07-2.93c-2.63,0-5.21,1.071-7.07,2.93c-1.859,1.86-2.93,4.44-2.93,7.07
			s1.07,5.21,2.93,7.07c1.86,1.859,4.44,2.93,7.07,2.93c2.63,0,5.21-1.07,7.07-2.93c1.859-1.86,2.93-4.44,2.93-7.07
			S100.02,271.469,98.16,269.609z"/>
	</g>
</g>
<g>
	<g>
		<path fill="#fa9f34" d="M427.979,269.61c-1.859-1.859-4.439-2.93-7.069-2.93s-5.21,1.07-7.07,2.93s-2.93,4.44-2.93,7.07s1.069,5.21,2.93,7.07
			c1.86,1.859,4.44,2.93,7.07,2.93s5.21-1.071,7.069-2.93c1.86-1.86,2.931-4.44,2.931-7.07S429.84,271.47,427.979,269.61z"/>
	</g>
</g>
<g>
	<g>
		<path fill="#fa9f34" d="M511.624,360.502l-24.412-86.54v-8.382c0-72.441-58.88-131.388-131.298-131.489c-0.018,0-0.035,0-0.053,0h-0.138
			c-0.018,0-0.035,0-0.054,0c-38.298,0.057-74.77,17.026-99.585,45.871c-24.592-28.636-60.831-45.871-99.808-45.871
			c-72.503,0-131.488,58.985-131.488,131.489v8.382l-24.412,86.54c-0.851,3.015-0.239,6.253,1.65,8.75
			c1.891,2.497,4.842,3.965,7.974,3.965h39.826v11.753c0,35.192,28.632,63.824,63.824,63.824h11.102c5.244,0,9.51,4.266,9.51,9.509
			V502c0,5.522,4.478,10,10,10c5.522,0,10-4.478,10-10v-43.697c0-16.271-13.238-29.509-29.51-29.509H113.65
			c-24.165,0-43.824-19.659-43.824-43.824v-21.753c0-5.522-4.478-10-10-10H23.211l21.201-75.156c0.25-0.883,0.376-1.797,0.376-2.715
			v-9.766c0-61.475,50.014-111.489,111.488-111.489c44.239,0,84.326,26.177,102.126,66.689c2.222,5.058,8.121,7.353,13.178,5.133
			c5.057-2.222,7.354-8.122,5.133-13.178c-2.465-5.61-5.305-10.977-8.46-16.098c21.059-26.698,53.451-42.526,87.54-42.546
			c61.444,0.037,111.419,50.036,111.419,111.489v9.766c0,0.918,0.126,1.832,0.376,2.715l21.201,75.156h-36.615
			c-5.522,0-10,4.478-10,10v21.753c0,24.165-19.659,43.824-43.824,43.824h-11.102c-16.271,0-29.51,13.237-29.51,29.509V502
			c0,5.522,4.478,10,10,10c5.522,0,10-4.478,10-10v-43.697c0-5.243,4.266-9.509,9.51-9.509h11.102
			c35.192,0,63.824-28.632,63.824-63.824v-11.753H502c3.132,0,6.083-1.468,7.974-3.965
			C511.863,366.755,512.475,363.517,511.624,360.502z"/>
	</g>
</g>
<g>
	<g>
		<path fill="#fa9f34" d="M239.22,388.94c-1.861-1.86-4.43-2.93-7.06-2.93c-2.641,0-5.21,1.07-7.08,2.93c-1.86,1.86-2.931,4.44-2.931,7.07
			s1.07,5.21,2.931,7.07c1.87,1.859,4.439,2.93,7.08,2.93c2.62,0,5.199-1.07,7.06-2.93c1.87-1.86,2.94-4.44,2.94-7.07
			S241.09,390.8,239.22,388.94z"/>
	</g>
</g>
<g>
	<g>
		<path fill="#fa9f34" d="M199.229,388.94c-1.87-1.86-4.439-2.93-7.069-2.93c-2.641,0-5.221,1.07-7.08,2.93c-1.86,1.86-2.931,4.44-2.931,7.07
			s1.07,5.21,2.931,7.07c1.859,1.859,4.439,2.93,7.08,2.93c2.63,0,5.199-1.07,7.069-2.93c1.86-1.86,2.931-4.44,2.931-7.07
			S201.09,390.8,199.229,388.94z"/>
	</g>
</g>
<g>
	<g>
		<path fill="#fa9f34" d="M159.229,388.94c-1.87-1.86-4.439-2.93-7.069-2.93c-2.641,0-5.21,1.07-7.08,2.93c-1.86,1.86-2.931,4.44-2.931,7.07
			s1.07,5.21,2.931,7.07c1.87,1.859,4.439,2.93,7.08,2.93c2.63,0,5.199-1.07,7.069-2.93c1.86-1.86,2.92-4.44,2.92-7.07
			S161.089,390.8,159.229,388.94z"/>
	</g>
</g>
<g>
	<g>
		<path fill="#fa9f34" d="M255.986,0c-5.522,0-10,4.477-10,10v65.714c0,5.523,4.478,10,10,10c5.522,0,10-4.477,10-10V10
			C265.986,4.477,261.508,0,255.986,0z"/>
	</g>
</g>
<g>
	<g>
		<path fill="#fa9f34" d="M192.657,94.003L166.23,67.598c-3.909-3.904-10.239-3.9-14.143,0.006c-3.903,3.907-3.9,10.239,0.006,14.143l26.428,26.404
			c1.953,1.951,4.511,2.926,7.068,2.926c2.561,0,5.121-0.978,7.074-2.932C196.566,104.238,196.563,97.907,192.657,94.003z"/>
	</g>
</g>
<g>
	<g>
		<path fill="#fa9f34" d="M139.622,40.991c-3.73-4.07-10.062-4.341-14.134-0.609c-4.071,3.732-4.347,10.058-0.614,14.129
			c1.972,2.152,4.668,3.243,7.374,3.243c2.413,0,4.835-0.869,6.754-2.628l0.012-0.011C143.085,51.383,143.355,45.063,139.622,40.991
			z"/>
	</g>
</g>
<g>
	<g>
		<path fill="#fa9f34" d="M359.905,67.626c-3.907-3.905-10.239-3.901-14.143,0.005L317.667,95.75c-3.903,3.907-3.9,10.239,0.006,14.142
			c1.952,1.951,4.511,2.926,7.068,2.926c2.561,0,5.121-0.978,7.074-2.932l28.096-28.118
			C363.814,77.861,363.811,71.529,359.905,67.626z"/>
	</g>
</g>
<g>
	<g>
		<path fill="#fa9f34" d="M383.365,43.893l-0.012-0.011c-3.987-3.822-10.312-3.68-14.133,0.306c-3.821,3.988-3.681,10.323,0.307,14.145
			c1.939,1.857,4.43,2.78,6.918,2.78c2.63,0,5.257-1.032,7.221-3.081C387.487,54.045,387.353,47.715,383.365,43.893z"/>
	</g>
</g>
<g>
</g>
<g>
</g>
<g>
</g>
<g>
</g>
<g>
</g>
<g>
</g>
<g>
</g>
<g>
</g>
<g>
</g>
<g>
</g>
<g>
</g>
<g>
</g>
<g>
</g>
<g>
</g>
<g>
</g>
</svg>
